<svg width="45" height="44" viewBox="0 0 45 44" fill="none" xmlns="http://www.w3.org/2000/svg">
<path d="M7.625 16.7771V30.425C7.625 33.9954 7.625 35.7806 8.31983 37.1442C8.93103 38.3438 9.90627 39.319 11.1058 39.9301C12.4695 40.625 14.2547 40.625 17.825 40.625H27.175C30.7454 40.625 32.5304 40.625 33.8942 39.9301C35.0938 39.319 36.069 38.3438 36.6801 37.1442C37.375 35.7806 37.375 33.9954 37.375 30.425V6.62504M41.625 21.5L30.0795 8.67347C27.4536 5.75634 26.1408 4.29778 24.5944 3.7593C23.2365 3.28636 21.7584 3.28647 20.4003 3.75962C18.8541 4.29831 17.5415 5.75708 14.9162 8.6746L3.375 21.5" stroke="white" stroke-width="5" stroke-linecap="round" stroke-linejoin="round"/>
</svg>
