<svg width="44" height="67" viewBox="0 0 44 67" fill="none" xmlns="http://www.w3.org/2000/svg">
<path d="M9.99 27.81H14.58C18.54 27.81 21.66 27.09 23.94 25.65C26.7 24.03 28.08 21.57 28.08 18.27C28.08 14.37 26.91 11.82 24.57 10.62C22.95 9.84 19.65 9.45 14.67 9.45H9.99V27.81ZM43.47 66.87H33.12L23.4 44.37C22.08 41.31 20.88 39.39 19.8 38.61C18.48 37.59 16.38 37.08 13.5 37.08H9.99V66.87H0.36V0.269998H18C31.2 0.269998 37.8 6.27 37.8 18.27C37.8 22.23 36.57 25.53 34.11 28.17C31.65 30.81 28.44 32.52 24.48 33.3C27.84 33.96 30.33 36.18 31.95 39.96L43.47 66.87Z" fill="#00FF0B"/>
</svg>
