<svg width="44" height="44" viewBox="0 0 44 44" fill="none" xmlns="http://www.w3.org/2000/svg">
<g clip-path="url(#clip0_2_95)">
<path d="M5.5 9.16667C5.5 8.68044 5.69315 8.21412 6.03697 7.8703C6.38079 7.52649 6.8471 7.33333 7.33333 7.33333H36.6667C37.1529 7.33333 37.6192 7.52649 37.963 7.8703C38.3068 8.21412 38.5 8.68044 38.5 9.16667V27.5C38.5 27.9862 38.3068 28.4525 37.963 28.7964C37.6192 29.1402 37.1529 29.3333 36.6667 29.3333H7.33333C6.8471 29.3333 6.38079 29.1402 6.03697 28.7964C5.69315 28.4525 5.5 27.9862 5.5 27.5V9.16667Z" stroke="white" stroke-width="2.75" stroke-linecap="round" stroke-linejoin="round"/>
<path d="M12.8333 36.6667H31.1666" stroke="white" stroke-width="2.75" stroke-linecap="round" stroke-linejoin="round"/>
<path d="M16.5 29.3333V36.6667" stroke="white" stroke-width="2.75" stroke-linecap="round" stroke-linejoin="round"/>
<path d="M27.5 29.3333V36.6667" stroke="white" stroke-width="2.75" stroke-linecap="round" stroke-linejoin="round"/>
</g>
<defs>
<clipPath id="clip0_2_95">
<rect width="44" height="44" fill="white"/>
</clipPath>
</defs>
</svg>
