<svg width="44" height="44" viewBox="0 0 44 44" fill="none" xmlns="http://www.w3.org/2000/svg">
<g clip-path="url(#clip0_63_2)">
<path d="M9.74422 3.84998C11.1944 3.64282 13.2276 4.11582 15.8547 5.62098L16.3534 5.91615L16.6467 6.09948L17.3746 5.94732C20.1498 5.41104 22.9973 5.36142 25.7896 5.80065L26.6256 5.94732L27.3516 6.09948L27.6467 5.91615C30.1859 4.37615 32.2062 3.77115 33.7371 3.81148L34.0377 3.82615L34.3072 3.85732L34.4466 3.88298L34.5382 3.90315L34.8022 3.98932C35.2345 4.16799 35.5821 4.5051 35.7739 4.93165C36.5241 6.6031 36.7768 8.45532 36.5017 10.2666L36.4156 10.7561L36.3312 11.1155L36.5567 11.4143C37.6091 12.8718 38.2617 14.5823 38.4451 16.3771L38.4872 16.918L38.5001 17.4166C38.5001 24.4841 35.4586 28.2022 29.9861 29.6633L29.5369 29.7751L29.2949 29.8283L29.3206 30.1235L29.3352 30.4113L29.3426 31.0805L29.3389 31.471L29.3334 38.5C29.3333 38.949 29.1685 39.3824 28.8701 39.718C28.5717 40.0536 28.1605 40.2679 27.7146 40.3205L27.5001 40.3333H16.5001C16.051 40.3333 15.6176 40.1684 15.282 39.87C14.9465 39.5716 14.7321 39.1604 14.6796 38.7145L14.6667 38.5V37.1543C11.3337 37.631 9.11172 36.377 7.13172 33.7113L6.15089 32.307C5.63755 31.581 5.31672 31.2455 5.07105 31.1263L4.98305 31.0915C4.52914 30.944 4.15064 30.6253 3.928 30.2031C3.70536 29.7809 3.65613 29.2886 3.79078 28.8307C3.92542 28.3728 4.23333 27.9855 4.64905 27.751C5.06478 27.5166 5.55555 27.4535 6.01705 27.5752C7.19405 27.9198 7.98605 28.6165 8.89539 29.8467L9.88172 31.2565C11.2751 33.2347 12.3751 33.9313 14.6649 33.44L14.6667 32.197L14.6337 31.889C14.5796 31.3873 14.5667 30.8821 14.5952 30.3783L14.6264 30.0392L14.6612 29.8191L14.4632 29.7751C9.00722 28.4735 5.84105 25.058 5.52572 18.5203L5.50739 17.952L5.50005 17.4166C5.50218 15.4304 6.08043 13.4874 7.16472 11.8231L7.44339 11.4161L7.66705 11.1173L7.58455 10.758C7.25403 9.14751 7.34561 7.47894 7.85039 5.91432L8.03372 5.39732L8.22805 4.93348C8.41945 4.50727 8.76634 4.17021 9.19789 3.99115L9.46189 3.90498L9.74422 3.84998Z" fill="white"/>
</g>
<defs>
<clipPath id="clip0_63_2">
<rect width="44" height="44" fill="white"/>
</clipPath>
</defs>
</svg>
