<svg width="98" height="98" viewBox="0 0 98 98" fill="none" xmlns="http://www.w3.org/2000/svg">
<circle cx="49" cy="49" r="49" fill="#00FF0B"/>
<g clip-path="url(#clip0_10_35)">
<path d="M22.9409 75.95L28.2084 63.8188C24.1785 58.0981 22.3748 51.1035 23.1358 44.1474C23.8968 37.1913 27.1702 30.7521 32.3417 26.0381C37.5132 21.3241 44.2272 18.6594 51.2238 18.5441C58.2204 18.4288 65.0186 20.8709 70.3426 25.4119C75.6666 29.953 79.1504 36.2808 80.1402 43.2081C81.1299 50.1353 79.5577 57.1856 75.7184 63.0359C71.8792 68.8862 66.0369 73.1343 59.2879 74.983C52.539 76.8317 45.3473 76.1539 39.0627 73.0768L22.9409 75.95Z" stroke="black" stroke-width="8" stroke-linecap="round" stroke-linejoin="round"/>
<path d="M42.0955 40.8333C42.0955 41.2567 42.2636 41.6627 42.563 41.962C42.8623 42.2614 43.2683 42.4295 43.6917 42.4295C44.115 42.4295 44.521 42.2614 44.8204 41.962C45.1197 41.6627 45.2879 41.2567 45.2879 40.8333V37.6409C45.2879 37.2175 45.1197 36.8115 44.8204 36.5122C44.521 36.2128 44.115 36.0447 43.6917 36.0447C43.2683 36.0447 42.8623 36.2128 42.563 36.5122C42.2636 36.8115 42.0955 37.2175 42.0955 37.6409V40.8333C42.0955 45.0667 43.7772 49.1268 46.7707 52.1202C49.7641 55.1137 53.8242 56.7954 58.0576 56.7954H61.25C61.6733 56.7954 62.0794 56.6273 62.3787 56.3279C62.678 56.0286 62.8462 55.6226 62.8462 55.1992C62.8462 54.7759 62.678 54.3699 62.3787 54.0705C62.0794 53.7712 61.6733 53.603 61.25 53.603H58.0576C57.6342 53.603 57.2282 53.7712 56.9289 54.0705C56.6295 54.3699 56.4614 54.7759 56.4614 55.1992C56.4614 55.6226 56.6295 56.0286 56.9289 56.3279C57.2282 56.6273 57.6342 56.7954 58.0576 56.7954" fill="black"/>
<path d="M42.0955 40.8333C42.0955 41.2567 42.2636 41.6627 42.563 41.962C42.8623 42.2614 43.2683 42.4295 43.6917 42.4295C44.115 42.4295 44.521 42.2614 44.8204 41.962C45.1197 41.6627 45.2879 41.2567 45.2879 40.8333V37.6409C45.2879 37.2175 45.1197 36.8115 44.8204 36.5122C44.521 36.2128 44.115 36.0447 43.6917 36.0447C43.2683 36.0447 42.8623 36.2128 42.563 36.5122C42.2636 36.8115 42.0955 37.2175 42.0955 37.6409V40.8333ZM42.0955 40.8333C42.0955 45.0667 43.7772 49.1268 46.7707 52.1202C49.7641 55.1137 53.8242 56.7954 58.0576 56.7954M58.0576 56.7954H61.25C61.6733 56.7954 62.0794 56.6273 62.3787 56.3279C62.678 56.0286 62.8462 55.6226 62.8462 55.1992C62.8462 54.7759 62.678 54.3699 62.3787 54.0705C62.0794 53.7712 61.6733 53.603 61.25 53.603H58.0576C57.6342 53.603 57.2282 53.7712 56.9289 54.0705C56.6295 54.3699 56.4614 54.7759 56.4614 55.1992C56.4614 55.6226 56.6295 56.0286 56.9289 56.3279C57.2282 56.6273 57.6342 56.7954 58.0576 56.7954Z" stroke="black" stroke-width="8" stroke-linecap="round" stroke-linejoin="round"/>
</g>
<defs>
<clipPath id="clip0_10_35">
<rect width="76.6182" height="76.6182" fill="white" transform="translate(13.3635 8.90909)"/>
</clipPath>
</defs>
</svg>
