<svg width="89" height="89" viewBox="0 0 89 89" fill="none" xmlns="http://www.w3.org/2000/svg">
<g clip-path="url(#clip0_6_212)">
<path d="M42.5791 77.5932C41.5173 77.2808 40.5589 76.6888 39.8041 75.8793C39.0493 75.0697 38.5259 74.0722 38.2885 72.9911C38.0515 72.0129 37.5868 71.1044 36.9324 70.3397C36.2779 69.5749 35.4521 68.9755 34.5222 68.5903C33.5923 68.205 32.5845 68.0448 31.581 68.1226C30.5774 68.2004 29.6064 68.514 28.747 69.038C23.025 72.5239 16.4724 65.975 19.9583 60.2493C20.4815 59.3902 20.7947 58.4198 20.8723 57.417C20.9499 56.4141 20.7898 55.4071 20.405 54.4777C20.0202 53.5484 19.4215 52.7229 18.6576 52.0685C17.8938 51.4141 16.9863 50.9491 16.0089 50.7115C9.49704 49.1317 9.49704 39.8683 16.0089 38.2885C16.9871 38.0515 17.8956 37.5868 18.6603 36.9324C19.4251 36.2779 20.0245 35.4521 20.4097 34.5222C20.795 33.5923 20.9552 32.5845 20.8774 31.581C20.7996 30.5774 20.486 29.6064 19.962 28.747C16.4761 23.025 23.025 16.4724 28.7507 19.9583C32.459 22.2129 37.265 20.2178 38.2885 16.0089C39.8683 9.49704 49.1317 9.49704 50.7115 16.0089C50.9485 16.9871 51.4132 17.8956 52.0676 18.6603C52.7221 19.4251 53.5479 20.0245 54.4778 20.4097C55.4077 20.795 56.4155 20.9552 57.419 20.8774C58.4226 20.7996 59.3936 20.486 60.253 19.962C65.975 16.4761 72.5276 23.025 69.0418 28.7507C68.5185 29.6098 68.2053 30.5802 68.1277 31.583C68.0501 32.5859 68.2102 33.5929 68.595 34.5223C68.9798 35.4516 69.5785 36.2771 70.3424 36.9315C71.1062 37.5859 72.0137 38.0509 72.9911 38.2885C77.8565 39.4678 79.0876 44.9413 76.6809 48.2899" stroke="#00FF0B" stroke-width="2.75" stroke-linecap="round" stroke-linejoin="round"/>
<path d="M33.375 44.5C33.375 47.4505 34.5471 50.2802 36.6334 52.3666C38.7198 54.4529 41.5495 55.625 44.5 55.625C47.4505 55.625 50.2802 54.4529 52.3666 52.3666C54.4529 50.2802 55.625 47.4505 55.625 44.5C55.625 41.5495 54.4529 38.7198 52.3666 36.6334C50.2802 34.5471 47.4505 33.375 44.5 33.375C41.5495 33.375 38.7198 34.5471 36.6334 36.6334C34.5471 38.7198 33.375 41.5495 33.375 44.5Z" stroke="#00FF0B" stroke-width="2.75" stroke-linecap="round" stroke-linejoin="round"/>
<path d="M74.1666 77.875L81.5833 70.4583L74.1666 63.0417" stroke="#00FF0B" stroke-width="2.75" stroke-linecap="round" stroke-linejoin="round"/>
<path d="M63.0417 63.0417L55.625 70.4583L63.0417 77.875" stroke="#00FF0B" stroke-width="2.75" stroke-linecap="round" stroke-linejoin="round"/>
</g>
<defs>
<clipPath id="clip0_6_212">
<rect width="89" height="89" fill="white"/>
</clipPath>
</defs>
</svg>
