<svg width="800" height="800" viewBox="0 0 800 800" fill="none" xmlns="http://www.w3.org/2000/svg">
<g clip-path="url(#clip0_50_11)">
<path fill-rule="evenodd" clip-rule="evenodd" d="M0 0H800V800H0V0Z" fill="white"/>
<path fill-rule="evenodd" clip-rule="evenodd" d="M333.57 422.208C333.57 422.208 314.462 433.327 347.183 437.083C386.835 441.611 407.089 440.96 450.771 432.696C450.771 432.696 462.271 439.897 478.325 446.127C380.373 488.099 256.644 443.699 333.57 422.208ZM321.596 367.437C321.596 367.437 300.16 383.303 332.91 386.69C375.268 391.064 408.703 391.421 466.596 380.282C466.596 380.282 474.59 388.396 487.169 392.828C368.756 427.463 236.876 395.555 321.596 367.437Z" fill="#3174B9"/>
<path fill-rule="evenodd" clip-rule="evenodd" d="M422.491 274.515C446.637 302.31 416.161 327.307 416.161 327.307C416.161 327.307 477.445 295.677 449.298 256.054C423.018 219.121 402.86 200.772 511.976 137.496C511.976 137.496 340.692 180.257 422.491 274.515Z" fill="#CA3132"/>
<path fill-rule="evenodd" clip-rule="evenodd" d="M552.035 462.724C552.035 462.724 566.179 474.386 536.454 483.405C479.931 500.525 301.156 505.688 251.497 484.086C233.659 476.316 267.127 465.546 277.657 463.272C288.638 460.898 294.905 461.329 294.905 461.329C275.054 447.351 166.594 488.784 239.822 500.67C439.503 533.047 603.822 486.094 552.035 462.724ZM342.763 310.681C342.763 310.681 251.838 332.283 310.569 340.136C335.375 343.452 384.789 342.688 430.853 338.824C468.489 335.666 506.265 328.909 506.265 328.909C506.265 328.909 493.005 334.599 483.397 341.148C391.048 365.44 212.675 354.127 264.031 329.295C307.452 308.29 342.763 310.681 342.763 310.681ZM505.887 401.851C599.755 353.085 556.355 306.211 526.054 312.528C518.645 314.076 515.321 315.412 515.321 315.412C515.321 315.412 518.085 311.088 523.339 309.228C583.274 288.165 629.359 371.367 504.015 404.316C504.011 404.316 505.456 403.013 505.887 401.851Z" fill="#3174B9"/>
<path fill-rule="evenodd" clip-rule="evenodd" d="M449.298 35.2943C449.298 35.2943 501.272 87.302 399.988 167.25C318.762 231.405 381.469 267.974 399.963 309.772C352.541 266.995 317.757 229.33 341.09 194.285C375.347 142.842 470.269 117.894 449.298 35.2943Z" fill="#CA3132"/>
<path fill-rule="evenodd" clip-rule="evenodd" d="M351.997 534.039C442.084 539.799 580.452 530.839 583.735 488.203C583.735 488.203 577.435 504.364 509.274 517.184C432.373 531.661 337.509 529.976 281.263 520.691C281.263 520.691 292.789 530.229 351.997 534.039Z" fill="#3174B9"/>
<path fill-rule="evenodd" clip-rule="evenodd" d="M579.572 610.496H576.833V608.961H584.225V610.496H581.485V618.166H579.572V610.496ZM594.322 610.878H594.289L591.567 618.162H590.317L587.611 610.878H587.578V618.162H585.76V608.956H588.429L590.936 615.468L593.442 608.956H596.086V618.162H594.326L594.322 610.878ZM337.235 696.927C328.739 704.289 319.758 708.431 311.694 708.431C300.205 708.431 293.972 701.529 293.972 690.485C293.972 678.528 300.645 669.779 327.357 669.779H337.23L337.235 696.927ZM360.684 723.381V641.487C360.684 620.557 348.748 606.744 319.973 606.744C303.185 606.744 288.468 610.89 276.503 616.174L279.948 630.679C289.373 627.218 301.558 624.01 313.52 624.01C330.096 624.01 337.23 630.679 337.23 644.487V654.842H328.946C288.68 654.842 270.51 670.464 270.51 693.951C270.51 714.188 282.484 725.693 305.024 725.693C319.513 725.693 330.337 719.712 340.443 710.959L342.281 723.381H360.684ZM438.947 723.381H409.708L374.5 608.828H400.042L421.893 679.221L426.757 700.371C437.78 669.779 445.604 638.723 449.518 608.828H474.353C467.704 646.546 455.726 687.958 438.947 723.381ZM551.159 696.927C542.638 704.289 533.657 708.431 525.61 708.431C514.121 708.431 507.896 701.529 507.896 690.485C507.896 678.528 514.574 669.779 541.269 669.779H551.159V696.927ZM574.617 723.381V641.487C574.617 620.557 562.643 606.744 533.898 606.744C517.093 606.744 502.38 610.89 490.415 616.174L493.86 630.679C503.285 627.218 515.495 624.01 527.461 624.01C544.012 624.01 551.155 630.679 551.155 644.487V654.842H542.871C502.6 654.842 484.442 670.464 484.442 693.951C484.442 714.188 496.391 725.693 518.936 725.693C533.437 725.693 544.245 719.712 554.375 710.959L556.222 723.381H574.617ZM244.799 742.846C238.117 752.612 227.309 760.344 215.493 764.706L203.914 751.068C212.916 746.448 220.627 738.99 224.217 732.051C227.309 725.867 228.6 717.915 228.6 698.881V568.084H253.523V697.076C253.523 722.534 251.489 732.823 244.799 742.846Z" fill="#CA3132"/>
</g>
<defs>
<clipPath id="clip0_50_11">
<rect width="800" height="800" fill="white"/>
</clipPath>
</defs>
</svg>
