<svg width="800" height="800" viewBox="0 0 800 800" fill="none" xmlns="http://www.w3.org/2000/svg">
<path d="M750 50H50V750H750V50Z" fill="#F5DE19"/>
<path d="M520.225 596.875C526.189 608.99 535.456 619.173 546.956 626.25C558.456 633.327 571.722 637.01 585.225 636.875C612.475 636.875 629.9 623.25 629.9 604.375C629.9 581.875 612 573.825 582 560.7L565.55 553.65C518.05 533.425 486.55 508.1 486.55 454.55C486.55 405.225 524.05 367.65 582.875 367.65C601.918 366.275 620.944 370.537 637.58 379.904C654.216 389.271 667.726 403.33 676.425 420.325L625 453.2C621.651 444.773 615.818 437.563 608.277 432.527C600.736 427.491 591.842 424.866 582.775 425C578.819 424.604 574.824 425.036 571.044 426.27C567.265 427.503 563.783 429.51 560.822 432.163C557.861 434.816 555.485 438.057 553.846 441.679C552.206 445.301 551.339 449.224 551.3 453.2C551.3 472.925 563.525 480.925 591.75 493.2L608.2 500.25C664.1 524.225 695.7 548.65 695.7 603.575C695.7 662.8 649.175 695.25 586.7 695.25C562.358 696.801 538.086 691.274 516.815 679.337C495.544 667.399 478.183 649.561 466.825 627.975L520.225 596.875ZM287.85 602.575C298.175 620.9 307.575 636.4 330.175 636.4C351.775 636.4 365.425 627.95 365.425 595.075V371.4H431.2V595.95C431.2 664.05 391.2 695.05 332.975 695.05C312.394 696.175 291.954 691.046 274.342 680.337C256.73 669.628 242.771 653.841 234.3 635.05L287.85 602.575Z" fill="black"/>
</svg>
