<svg width="800" height="800" viewBox="0 0 800 800" fill="none" xmlns="http://www.w3.org/2000/svg">
<path d="M717.2 50H82.8C64.6851 50 50 64.6851 50 82.8V717.2C50 735.315 64.6851 750 82.8 750H717.2C735.315 750 750 735.315 750 717.2V82.8C750 64.6851 735.315 50 717.2 50Z" fill="#3178C6"/>
<path fill-rule="evenodd" clip-rule="evenodd" d="M456.125 593.975V670.675C470.061 677.553 484.913 682.394 500.225 685.05C517.92 688.317 535.881 689.924 553.875 689.85C571.412 689.933 588.909 688.165 606.075 684.575C621.487 681.461 636.192 675.528 649.45 667.075C661.758 659.13 671.903 648.255 678.975 635.425C691.64 608.858 693.311 578.367 683.625 550.575C679.537 540.182 673.447 530.694 665.7 522.65C657.384 514.097 647.939 506.72 637.625 500.725C625.751 493.771 613.414 487.64 600.7 482.375C590.7 478.225 581.7 474.192 573.7 470.275C566.594 466.873 559.794 462.867 553.375 458.3C548.347 454.775 543.98 450.391 540.475 445.35C537.446 440.773 535.869 435.388 535.95 429.9C535.883 424.849 537.291 419.888 540 415.625C542.943 411.163 546.868 407.435 551.475 404.725C557.107 401.409 563.235 399.02 569.625 397.65C577.47 395.907 585.489 395.068 593.525 395.15C600.283 395.173 607.032 395.658 613.725 396.6C620.952 397.577 628.103 399.056 635.125 401.025C642.268 403.005 649.253 405.512 656.025 408.525C662.596 411.454 668.881 414.986 674.8 419.075V347.5C662.478 342.838 649.699 339.486 636.675 337.5C620.947 335.212 605.067 334.133 589.175 334.275C571.803 334.181 554.481 336.154 537.575 340.15C522.294 343.642 507.763 349.849 494.675 358.475C482.517 366.574 472.478 377.47 465.4 390.25C457.899 404.442 454.188 420.329 454.625 436.375C454.071 457.595 461.06 478.323 474.35 494.875C490.655 513.227 511.214 527.297 534.225 535.85C544.725 540.183 554.517 544.425 563.6 548.575C571.795 552.222 579.673 556.545 587.15 561.5C593.181 565.423 598.478 570.373 602.8 576.125C606.6 581.342 608.617 587.646 608.55 594.1C608.584 598.937 607.343 603.697 604.95 607.9C602.291 612.417 598.555 616.205 594.075 618.925C588.469 622.343 582.336 624.809 575.925 626.225C567.574 628.092 559.032 628.973 550.475 628.85C533.683 628.819 517.024 625.858 501.25 620.1C484.77 614.153 469.488 605.305 456.125 593.975ZM327.275 403.025H427.275V339.85H148.45V403.025H248V684.375H327.275V403.025Z" fill="white"/>
</svg>
