<svg width="103" height="85" viewBox="0 0 103 85" fill="none" xmlns="http://www.w3.org/2000/svg">
<g clip-path="url(#clip0_12_189)">
<path d="M17.4592 45.7986H38.6094" stroke="#00FF0B" stroke-width="5" stroke-linecap="round" stroke-linejoin="round"/>
<path d="M51.2996 56.2874V28.3174H63.9897C66.2334 28.3174 68.3853 29.0541 69.9719 30.3654C71.5584 31.6768 72.4498 33.4554 72.4498 35.3099V38.8061C72.4498 40.6607 71.5584 42.4392 69.9719 43.7506C68.3853 45.0619 66.2334 45.7987 63.9897 45.7987H51.2996" stroke="#00FF0B" stroke-width="5" stroke-linecap="round" stroke-linejoin="round"/>
<path d="M85.1399 28.3174V56.2874" stroke="#00FF0B" stroke-width="5" stroke-linecap="round" stroke-linejoin="round"/>
<path d="M38.6094 56.2874V37.058C38.6094 34.7398 37.4953 32.5166 35.5121 30.8774C33.5288 29.2383 30.839 28.3174 28.0343 28.3174C25.2296 28.3174 22.5398 29.2383 20.5566 30.8774C18.5734 32.5166 17.4592 34.7398 17.4592 37.058V56.2874" stroke="#00FF0B" stroke-width="5" stroke-linecap="round" stroke-linejoin="round"/>
</g>
<defs>
<clipPath id="clip0_12_189">
<rect width="101.521" height="83.9102" fill="white" transform="translate(0.539062 0.347305)"/>
</clipPath>
</defs>
</svg>
