<svg width="1082" height="1082" viewBox="0 0 1082 1082" fill="none" xmlns="http://www.w3.org/2000/svg">
<rect width="1082" height="1082" rx="541" fill="#00FF0B"/>
<path d="M712 615.5C702.5 611 657 588.5 648.5 585C640 581.5 634 580.5 627.5 590C621 599.5 603.5 620 598 626.5C592.5 633 587.5 633.5 578 626.5C550.714 615.55 525.513 599.99 503.5 580.5C483.573 561.738 466.702 539.975 453.5 516C448 507 453.5 502 457.5 497C461.5 492 466.5 486.5 471.5 481C475.156 476.243 478.182 471.033 480.5 465.5C481.74 462.927 482.385 460.107 482.385 457.25C482.385 454.393 481.74 451.573 480.5 449C480.5 444.5 459.5 399 451.5 380.5C443.5 362 436.5 364.5 431 364.5H411C401.473 364.871 392.482 369.007 386 376C375.538 385.984 367.251 398.021 361.658 411.357C356.066 424.693 353.288 439.04 353.5 453.5C356.058 488.999 369.11 522.936 391 551C431.169 610.672 486.124 658.908 550.5 691C572.5 700.5 589.5 706 603 710.5C621.957 716.23 641.995 717.429 661.5 714C674.455 711.372 686.731 706.11 697.569 698.541C708.406 690.973 717.572 681.258 724.5 670C730.265 656.097 732.166 640.894 730 626C727.5 622.5 721.5 620 712 615.5Z" fill="white"/>
<path d="M805.5 275C770.921 240.094 729.703 212.466 684.275 193.746C638.848 175.025 590.132 165.591 541 166C475.915 166.341 412.058 183.752 355.807 216.494C299.556 249.237 252.881 296.165 220.442 352.591C188.003 409.017 170.936 472.967 170.947 538.053C170.957 603.139 188.043 667.084 220.5 723.5L170.5 916L367.5 866C421.962 895.635 482.997 911.109 545 911H541C614.896 911.482 687.261 889.944 748.867 849.132C810.473 808.321 858.528 750.087 886.904 681.855C915.281 613.623 922.692 538.485 908.194 466.024C893.696 393.563 857.945 327.061 805.5 275ZM541 847C485.528 847.044 431.087 832.008 383.5 803.5L372.5 797L255.5 827.5L286.5 713.5L279.5 702C239.568 637.692 224.631 560.963 237.522 486.371C250.414 411.779 290.238 344.514 349.438 297.339C408.638 250.164 483.096 226.361 558.683 230.446C634.27 234.531 705.729 266.22 759.5 319.5C788.327 348.095 811.175 382.14 826.712 419.654C842.25 457.167 850.166 497.397 850 538C849.868 619.911 817.27 698.43 759.35 756.35C701.43 814.27 622.911 846.868 541 847Z" fill="white"/>
</svg>
