<svg width="800" height="800" viewBox="0 0 800 800" fill="none" xmlns="http://www.w3.org/2000/svg">
<path fill-rule="evenodd" clip-rule="evenodd" d="M325.41 50C270.482 50 225.956 93.1133 225.956 146.296V212.963H398.087V231.482H149.453C94.5267 231.482 50 274.595 50 327.778V472.223C50 525.405 94.5267 568.518 149.453 568.518H206.83V487.038C206.83 433.855 251.357 390.74 306.285 390.74H489.89C536.367 390.74 574.042 354.26 574.042 309.26V146.296C574.042 93.1133 529.517 50 474.59 50H325.41ZM302.46 168.519C321.472 168.519 336.885 153.595 336.885 135.185C336.885 116.776 321.472 101.852 302.46 101.852C283.445 101.852 268.032 116.776 268.032 135.185C268.032 153.595 283.445 168.519 302.46 168.519Z" fill="url(#paint0_linear_51_2)"/>
<path fill-rule="evenodd" clip-rule="evenodd" d="M474.585 750C529.513 750 574.04 706.888 574.04 653.705V587.038H401.908V568.52H650.542C705.47 568.52 749.995 525.405 749.995 472.223V327.778C749.995 274.595 705.47 231.482 650.542 231.482H593.165V312.963C593.165 366.148 548.638 409.26 493.713 409.26H310.105C263.628 409.26 225.952 445.74 225.952 490.74V653.705C225.952 706.888 270.48 750 325.405 750H474.585ZM497.538 631.483C478.523 631.483 463.11 646.405 463.11 664.815C463.11 683.225 478.523 698.147 497.538 698.147C516.55 698.147 531.962 683.225 531.962 664.815C531.962 646.405 516.55 631.483 497.538 631.483Z" fill="url(#paint1_linear_51_2)"/>
<defs>
<linearGradient id="paint0_linear_51_2" x1="312.022" y1="50" x2="312.022" y2="568.518" gradientUnits="userSpaceOnUse">
<stop stop-color="#327EBD"/>
<stop offset="1" stop-color="#1565A7"/>
</linearGradient>
<linearGradient id="paint1_linear_51_2" x1="487.975" y1="231.482" x2="487.975" y2="750" gradientUnits="userSpaceOnUse">
<stop stop-color="#FFDA4B"/>
<stop offset="1" stop-color="#F9C600"/>
</linearGradient>
</defs>
</svg>
