<svg width="800" height="800" viewBox="0 0 800 800" fill="none" xmlns="http://www.w3.org/2000/svg">
<g clip-path="url(#clip0_46_19)">
<path d="M423.668 345.497C448.134 345.497 472.155 364.848 472.155 399.767V400.212C472.155 434.909 448.356 454.482 423.668 454.482C406.319 454.482 395.421 445.808 388.081 436.021V472.943C388.081 479.487 382.946 484.747 376.454 484.947L376.07 484.953C369.62 484.953 364.282 479.615 364.282 473.165V357.953C364.06 351.503 369.398 346.165 375.848 345.942H376.07C382.615 345.942 387.875 351.077 388.075 357.569L388.081 357.953V365.07C395.865 354.172 406.764 345.497 423.668 345.497ZM740.39 345.275C757.026 345.275 767.845 353.676 775.604 364.33L775.977 364.848V357.73L775.983 357.347C776.179 350.984 781.235 345.926 787.596 345.726L787.988 345.72H788.21C794.754 345.938 800.015 351.077 800.005 357.569L799.998 357.953V430.906C799.998 448.477 795.327 461.599 786.653 470.274C777.312 479.838 762.632 484.286 743.726 484.286C729.714 484.286 715.924 481.172 703.246 474.944C699.243 473.61 696.574 469.606 696.574 465.38C696.796 459.82 701.245 455.594 706.805 455.594C708.362 455.594 709.697 455.817 711.031 456.484C720.817 462.044 731.938 464.713 743.059 464.713C763.299 464.713 774.865 454.927 775.977 436.021C768.637 445.585 757.739 454.26 740.39 454.26C715.949 454.26 692.379 435.076 691.91 401.026L691.903 399.99V399.545C691.903 364.625 715.924 345.275 740.39 345.275ZM645.418 345.942C668.994 345.942 682.562 361.734 682.562 385.977V442.249C682.784 448.699 677.668 453.815 671.218 454.037H670.774C664.323 454.26 658.985 448.922 658.763 442.471V393.317C658.763 377.081 650.756 367.739 636.299 367.739C622.509 367.739 612.723 377.526 612.723 393.762V442.471C612.723 449.144 607.385 454.482 600.712 454.482C594.039 454.482 588.701 449.144 588.701 442.471L588.924 358.175C588.701 351.725 594.039 346.387 600.49 346.165H600.712C607.256 346.165 612.517 351.299 612.717 357.792L612.723 358.175V363.068C619.84 351.948 632.295 345.497 645.418 345.942ZM314.461 345.72C326.026 345.942 337.147 348.834 347.378 354.172C350.937 355.951 353.161 359.287 353.161 363.291C353.161 368.629 348.713 373.077 343.375 373.077H343.153C341.596 373.077 340.039 372.632 338.482 371.965C330.92 367.739 322.69 365.293 314.016 364.848C304.674 364.848 299.336 369.296 299.336 375.079V375.524C299.336 383.308 310.68 386.422 322.913 390.426C323.246 390.527 323.581 390.63 323.916 390.734L324.923 391.05C326.1 391.423 327.282 391.812 328.461 392.222L329.471 392.578C342.757 397.339 355.385 404.854 355.385 420.897V421.342C355.385 443.361 338.259 454.26 316.685 454.26C302.45 454.037 288.438 449.811 276.65 441.804C273.758 440.025 271.979 436.911 272.201 433.575C272.201 428.237 276.427 423.788 281.765 423.788H281.988C283.767 423.788 285.546 424.233 287.103 425.123C296 431.351 306.454 434.687 317.13 435.132C327.361 435.132 333.366 430.683 333.366 423.788V423.344C333.366 415.114 322.245 412.445 310.012 408.664C308.733 408.293 307.441 407.91 306.145 407.508L305.173 407.202C291.239 402.769 277.317 395.903 277.317 377.97V377.526C277.317 357.73 293.776 345.72 314.461 345.72ZM564.68 346.165C571.225 346.165 576.485 351.299 576.685 357.792L576.691 358.175V442.471C576.691 449.144 571.353 454.26 564.68 454.26C558.008 454.26 552.892 448.922 552.892 442.471V358.175C552.67 351.725 558.008 346.387 564.458 346.165H564.68ZM543.328 355.951V357.73C543.328 363.513 539.325 368.406 533.764 369.296C516.638 372.188 505.072 387.09 505.072 407.774V442.249C505.072 448.922 499.734 454.037 493.062 454.037C486.738 454.037 481.484 449.12 481.28 442.849L481.274 442.47V442.249L481.496 357.953C481.274 351.503 486.612 346.165 493.062 345.942H493.284C499.829 345.942 505.089 351.077 505.289 357.569L505.295 357.953V363.736C506.407 354.839 521.087 345.942 531.54 345.942C537.545 345.497 542.883 349.946 543.328 355.951ZM418.33 366.405C402.093 366.405 387.858 379.972 387.858 399.767V400.212C387.858 420.23 402.093 433.575 418.33 433.575C434.566 433.575 448.134 420.897 448.134 400.212V399.767C448.134 379.527 434.566 366.405 418.33 366.405ZM745.951 366.182C729.882 366.182 716.427 379.036 716.151 398.921L716.147 399.545V399.99C716.147 420.675 729.492 433.575 745.951 433.575C762.242 433.575 776.354 420.283 776.424 400.6L776.422 399.99V399.545C776.422 379.75 762.187 366.182 745.951 366.182ZM576.913 316.806V317.25C576.913 323.923 571.575 329.261 564.903 329.261C558.23 329.261 552.892 323.923 552.892 317.25C552.892 310.706 558.027 305.446 564.519 305.246L564.903 305.24C571.353 305.017 576.691 310.355 576.913 316.806Z" fill="#6DB33F"/>
<path d="M32.8801 321.699C75.5842 280.329 143.866 281.441 185.236 324.368C189.907 318.14 193.91 311.245 196.802 304.128C210.369 345.497 218.599 380.195 215.485 407.107C213.928 429.794 205.031 451.591 190.352 468.939C152.096 514.312 84.0361 520.095 38.6629 481.839L37.7906 481.064L37.6398 480.96C37.5349 480.885 37.4311 480.807 37.3284 480.727C36.9178 480.408 36.5446 480.06 36.2089 479.69L36.0875 479.55L34.6594 478.281C33.3249 477.137 31.9904 475.993 30.7959 474.709L30.2111 474.055C-11.1586 431.351 -9.82411 363.068 32.8801 321.699ZM48.8941 466.493C44.8906 463.379 39.1078 463.824 35.9939 467.827C33.2793 471.317 33.2693 476.16 35.9641 479.407L36.0875 479.55L37.7906 481.064L37.9578 481.178C41.811 483.716 46.9859 483.221 49.9839 479.694L50.2286 479.393C53.3425 475.389 52.6752 469.606 48.8941 466.493ZM195.69 315.249C184.569 338.602 156.989 356.396 133.19 361.956C124.021 364.135 115.334 364.683 106.856 365.114L104.319 365.241C92.9265 365.811 81.8664 366.441 70.4686 370.853C23.3161 388.869 24.2058 444.918 50.0062 457.596L51.5631 458.486C51.5631 458.486 68.6363 455.091 86.2597 450.509L87.8389 450.096C88.1022 450.026 88.3655 449.957 88.6288 449.887L90.2075 449.464C97.5683 447.481 104.81 445.318 110.726 443.139C141.42 431.795 175.227 403.771 186.348 371.298C180.565 405.105 151.429 437.801 122.292 452.703C106.723 460.71 94.7121 462.489 69.1341 471.386C66.0203 472.498 63.5737 473.61 63.5737 473.61C63.7203 473.59 63.8669 473.57 64.0134 473.55L64.891 473.434L65.7631 473.324C71.4064 472.625 76.4739 472.275 76.4739 472.275C112.728 470.496 169.667 482.507 196.135 447.142C223.269 411.111 208.145 352.837 195.69 315.249Z" fill="#6DB33F"/>
<path d="M48.8941 466.493C52.6752 469.606 53.3424 475.389 50.2286 479.393C47.1147 483.396 41.3319 483.841 37.3284 480.727C33.3248 477.613 32.88 471.831 35.9939 467.827C39.1077 463.824 44.8906 463.379 48.8941 466.493ZM195.69 315.249C208.145 352.837 223.269 411.111 196.134 447.142C169.667 482.507 112.728 470.496 76.4738 472.275C76.4738 472.275 70.0237 472.72 63.5736 473.61C63.5736 473.61 66.0202 472.498 69.1341 471.386C94.7121 462.489 106.723 460.71 122.292 452.703C151.429 437.801 180.565 405.105 186.348 371.298C175.227 403.771 141.42 431.795 110.726 443.139C105.232 445.163 98.596 447.172 91.7825 449.037L90.2074 449.464C71.2796 454.565 51.5631 458.486 51.5631 458.486L50.0062 457.596C24.2057 444.918 23.3161 388.869 70.4686 370.853C91.1534 362.846 110.726 367.294 133.19 361.956C156.989 356.396 184.569 338.602 195.69 315.249Z" fill="white"/>
</g>
<defs>
<clipPath id="clip0_46_19">
<rect width="800" height="800" fill="white"/>
</clipPath>
</defs>
</svg>
